<svg xmlns="http://www.w3.org/2000/svg" viewBox="-10 -10 219 470">
<style type="text/css"><![CDATA[
.branch {
	fill: none;
	stroke-width: 10;
	stroke-linecap: round;
}
.commit {
	fill: #fff;
	stroke-width: 5;
}
.label-tag {
	fill: #333;
}
.label-rect {
	stroke: none;
}
.label-text {
	font-family: Inconsolata, Consolas, monospace;
	font-size: 14px;
	fill: #fff;
	stroke: none;
}
.branch-master {stroke: #002b36; fill: #002b36}
.branch-develop {stroke: #268bd2; fill: #268bd2}
.branch-bug-fix {stroke: #859900; fill: #859900}
]]></style>
<g class="merge">
	<g class="branch-bug-fix">
		<path class="branch" d="M100,0 C100,0 100,0 100,200" />
		<path class="branch" d="M50,300 C100,300 100,300 100,250" />
	</g>
	<g class="branch-develop">
		<path class="branch" d="M50,0 C50,0 50,0 50,300" />
		<path class="branch" d="M0,350 C50,350 50,350 50,300" />
	</g>
	<g class="branch-master">
		<path class="branch" d="M0,0 C0,0 0,0 0,50" />
		<path class="branch" d="M0,400 L0,450" />
	</g>
</g>
<g class="branch-bug-fix">
	<path class="branch" d="M100,200 L100,250" />
	<circle class="commit" cx="100" cy="200" r="7.5" />
	<circle class="commit" cx="100" cy="250" r="7.5" />
	<g class="label-branch" transform="translate(150,250)">
		<rect x="0" y="-14" width="59" height="24" rx="3" class="label-rect" />
		<text x="5" y="2" textLength="49" class="label-text">bug_fix</text>
	</g>
</g>
<g class="branch-develop">
	<path class="branch" d="M50,300 L50,300" />
	<circle class="commit" cx="50" cy="300" r="7.5" />
	<g class="label-branch" transform="translate(150,300)">
		<rect x="0" y="-14" width="59" height="24" rx="3" class="label-rect" />
		<text x="5" y="2" textLength="49" class="label-text">develop</text>
	</g>
</g>
<g class="branch-master">
	<path class="branch" d="M0,50 L0,400" />
	<circle class="commit" cx="0" cy="50" r="7.5" />
	<circle class="commit" cx="0" cy="100" r="7.5" />
	<circle class="commit" cx="0" cy="150" r="7.5" />
	<circle class="commit" cx="0" cy="350" r="7.5" />
	<circle class="commit" cx="0" cy="400" r="7.5" />
	<g class="label-branch" transform="translate(150,400)">
		<rect x="0" y="-14" width="52" height="24" rx="3" class="label-rect" />
		<text x="5" y="2" textLength="42" class="label-text">master</text>
	</g>
</g>
</svg>
